<svg id="katman_1" data-name="katman 1" xmlns="http://www.w3.org/2000/svg" viewBox="0 0 255.12 170.08"><defs><style>.cls-1{fill:#b1181e;}.cls-2{fill:#231f20;}</style></defs><rect class="cls-1" x="70.58" y="39.9" width="21.26" height="13.25"/><rect class="cls-1" x="106.02" y="26.58" width="21.26" height="26.57"/><polygon class="cls-2" points="91.84 53.15 91.84 120.47 106.02 120.47 106.02 53.15 127.28 53.15 127.28 141.73 70.58 141.73 70.58 53.15 91.84 53.15"/><rect class="cls-1" x="141.17" y="13.3" width="21.26" height="39.85"/><rect class="cls-2" x="141.17" y="53.15" width="21.26" height="88.58"/><polygon class="cls-2" points="0 53.15 56.69 53.15 56.69 141.73 35.43 141.73 35.43 74.41 0 74.41 0 53.15"/><path class="cls-2" d="M243.93,155.91l-31.87-44.66h-.31v44.66H190.49V14.17h21.26v92h.31l29.3-38.81h25.76l-31.85,41.41,34,47.15Z" transform="translate(-14.17 -14.17)"/><polygon class="cls-2" points="40.79 158.61 40.79 169.84 37.83 169.84 37.83 158.61 35.43 158.61 35.43 155.87 43.19 155.87 43.19 158.61 40.79 158.61"/><path class="cls-2" d="M63.35,184.21a4.12,4.12,0,0,1-4.41-4.4V170h3v9.81a1.46,1.46,0,1,0,2.92,0V170h3v9.77a4.13,4.13,0,0,1-4.42,4.4m-1.86-15.35a1.37,1.37,0,1,1,1.34-1.37,1.36,1.36,0,0,1-1.34,1.37m3.71,0a1.37,1.37,0,1,1,1.33-1.37,1.35,1.35,0,0,1-1.33,1.37" transform="translate(-14.17 -14.17)"/><path class="cls-2" d="M76.35,184,75,179.87a1.58,1.58,0,0,0-1.49-1.27h-.73V184H69.85V170.56a9.93,9.93,0,0,1,4-.75c3.25,0,4.92,1.6,4.92,4.34a3.47,3.47,0,0,1-2.21,3.4v0A4,4,0,0,1,78,179.73L79.46,184Zm-2.47-11.76a3.64,3.64,0,0,0-1.12.16v3.86h1.12a1.71,1.71,0,0,0,2-1.93c0-1.35-.57-2.09-2-2.09" transform="translate(-14.17 -14.17)"/><polygon class="cls-2" points="73.06 169.85 69.6 163.03 69.57 163.03 69.57 169.85 66.61 169.85 66.61 155.87 69.57 155.87 69.57 162.14 69.6 162.14 73.03 155.87 76.31 155.87 72.56 162.59 76.4 169.85 73.06 169.85"/><path class="cls-2" d="M93.05,172.4a1.6,1.6,0,0,1,0-3.19,1.6,1.6,0,0,1,0,3.19m-1.44,1.21h2.87V184H91.61Z" transform="translate(-14.17 -14.17)"/><polygon class="cls-2" points="87.78 164.42 87.78 169.85 84.83 169.85 84.83 164.42 81.25 155.87 84.41 155.87 86.29 161.12 86.32 161.12 88.2 155.87 91.38 155.87 87.78 164.42"/><polygon class="cls-2" points="92.41 169.85 92.41 155.87 99.18 155.87 99.18 158.61 95.31 158.61 95.31 161.47 98.77 161.47 98.77 164.15 95.31 164.15 95.31 167.1 99.18 167.1 99.18 169.85 92.41 169.85"/><path class="cls-2" d="M120.58,172.19a1.66,1.66,0,0,1,0-3.31,1.66,1.66,0,0,1,0,3.31m-1.42,1.42H122V184h-2.87Z" transform="translate(-14.17 -14.17)"/><path class="cls-2" d="M126.86,184.25a7.36,7.36,0,0,1-3.34-.75l1-2.86a4.34,4.34,0,0,0,2.24.66,1.29,1.29,0,0,0,1.46-1.3c0-.75-.63-1.19-1.41-1.6-1.32-.69-3.09-1.74-3.09-4.28s1.53-4.31,4.19-4.31a5.87,5.87,0,0,1,3,.75l-.9,2.63a4.14,4.14,0,0,0-2-.58,1.25,1.25,0,0,0-1.38,1.29c0,.74.65,1.2,1.43,1.64,1.32.76,3.16,1.74,3.16,4.27a4.08,4.08,0,0,1-4.36,4.44" transform="translate(-14.17 -14.17)"/><polygon class="cls-2" points="123.29 158.61 123.29 169.84 120.33 169.84 120.33 158.61 117.94 158.61 117.94 155.87 125.69 155.87 125.69 158.61 123.29 158.61"/><path class="cls-2" d="M148,184l-.73-2.84h-4l-.73,2.84h-3.1l4.07-14H147l4.07,14Zm-2.4-9.52a15.2,15.2,0,0,1-.32-1.75h0a16.6,16.6,0,0,1-.31,1.75l-1.12,4.31h2.89Z" transform="translate(-14.17 -14.17)"/><polygon class="cls-2" points="141.82 158.61 141.82 169.84 138.86 169.84 138.86 158.61 136.46 158.61 136.46 155.87 144.22 155.87 144.22 158.61 141.82 158.61"/><path class="cls-2" d="M161.32,172.4a1.6,1.6,0,1,1,1.53-1.59,1.55,1.55,0,0,1-1.53,1.59m-1.44,1.21h2.87V184h-2.87Z" transform="translate(-14.17 -14.17)"/><path class="cls-2" d="M167.58,184.25a7.4,7.4,0,0,1-3.34-.75l1-2.86a4.37,4.37,0,0,0,2.24.66,1.29,1.29,0,0,0,1.46-1.3c0-.75-.63-1.19-1.41-1.6-1.32-.69-3.09-1.74-3.09-4.28s1.53-4.31,4.19-4.31a5.84,5.84,0,0,1,3,.75l-.9,2.63a4.14,4.14,0,0,0-2-.58,1.25,1.25,0,0,0-1.38,1.29c0,.74.65,1.2,1.43,1.64,1.32.76,3.16,1.74,3.16,4.27a4.08,4.08,0,0,1-4.36,4.44" transform="translate(-14.17 -14.17)"/><polygon class="cls-2" points="164.01 158.61 164.01 169.84 161.06 169.84 161.06 158.61 158.66 158.61 158.66 155.87 166.41 155.87 166.41 158.61 164.01 158.61"/><path class="cls-2" d="M183.52,172.4a1.6,1.6,0,1,1,1.53-1.59,1.55,1.55,0,0,1-1.53,1.59m-1.45,1.21h2.87V184h-2.87Z" transform="translate(-14.17 -14.17)"/><polygon class="cls-2" points="179.22 169.85 175.76 163.03 175.73 163.03 175.73 169.85 172.77 169.85 172.77 155.87 175.73 155.87 175.73 162.14 175.76 162.14 179.18 155.87 182.47 155.87 178.72 162.59 182.56 169.85 179.22 169.85"/><polygon class="cls-2" points="194.23 169.85 190.78 163.03 190.74 163.03 190.74 169.85 187.79 169.85 187.79 155.87 190.74 155.87 190.74 162.14 190.78 162.14 194.2 155.87 197.49 155.87 193.73 162.59 197.57 169.85 194.23 169.85"/><path class="cls-2" d="M217.13,184.21a4.13,4.13,0,0,1-4.42-4.4V170h3v9.81a1.46,1.46,0,1,0,2.92,0V170h3v9.77a4.13,4.13,0,0,1-4.42,4.4" transform="translate(-14.17 -14.17)"/><path class="cls-2" d="M230.13,184l-1.37-4.15a1.59,1.59,0,0,0-1.5-1.27h-.73V184h-2.9V170.56a9.88,9.88,0,0,1,4-.75c3.25,0,4.92,1.6,4.92,4.34a3.46,3.46,0,0,1-2.21,3.4v0a4.09,4.09,0,0,1,1.45,2.14l1.49,4.29Zm-2.47-11.76a3.66,3.66,0,0,0-1.13.16v3.86h1.13a1.71,1.71,0,0,0,2-1.93c0-1.35-.57-2.09-2-2.09" transform="translate(-14.17 -14.17)"/><path class="cls-2" d="M239,184.21a4.13,4.13,0,0,1-4.42-4.4V170h3v9.81a1.46,1.46,0,1,0,2.92,0V170h2.95v9.77a4.12,4.12,0,0,1-4.41,4.4" transform="translate(-14.17 -14.17)"/><path class="cls-2" d="M256.25,184l-.71-8.07c-.09-.91-.14-2-.14-2h0s-.18,1-.42,2L252.83,184H251L248.9,176c-.24-.93-.42-2-.42-2h0s0,1.06-.12,2L247.6,184h-2.73l1.51-14h3.3l1.86,7.2c.21.83.37,1.84.37,1.84h0s.16-1,.37-1.84l1.86-7.2h3.3L259,184Z" transform="translate(-14.17 -14.17)"/><path class="cls-2" d="M264.87,184.21a4.12,4.12,0,0,1-4.41-4.4V170h3v9.81a1.46,1.46,0,1,0,2.92,0V170h3v9.77a4.13,4.13,0,0,1-4.42,4.4" transform="translate(-14.17 -14.17)"/></svg>