<svg id="Layer_1" data-name="Layer 1" xmlns="http://www.w3.org/2000/svg" xmlns:xlink="http://www.w3.org/1999/xlink" viewBox="0 0 500 333.33">
  <defs>
    <style>
      .cls-1 {
        fill: none;
      }

      .cls-2 {
        clip-path: url(#clip-path);
      }

      .cls-3 {
        fill: #fff;
      }

      .cls-4 {
        fill: #b23134;
      }
    </style>
    <clipPath id="clip-path">
      <rect class="cls-1" width="500" height="333.33"/>
    </clipPath>
  </defs>
  <title>tuik_logo_white_tr</title>
  <g class="cls-2">
    <g>
      <g>
        <path class="cls-3" d="M100,303.18a2.69,2.69,0,1,1,2.62-2.69A2.67,2.67,0,0,1,100,303.18Zm-7.26,0a2.69,2.69,0,1,1,2.63-2.69A2.67,2.67,0,0,1,92.74,303.18Zm3.65,30.08c-4.94,0-8.65-3.07-8.65-8.63V305.48h5.79v19.23a2.87,2.87,0,1,0,5.72,0V305.48H105v19.15C105,330.19,101.33,333.26,96.39,333.26Z"/>
        <path class="cls-3" d="M117,309.83a7.35,7.35,0,0,0-2.21.31v7.57H117c2.56,0,3.82-1.25,3.82-3.79S119.72,309.83,117,309.83Zm4.84,23.05-2.69-8.14a3.1,3.1,0,0,0-2.93-2.49h-1.43v10.63h-5.69V306.51a19.18,19.18,0,0,1,7.76-1.48c6.38,0,9.65,3.14,9.65,8.51a6.79,6.79,0,0,1-4.33,6.66v.08a7.83,7.83,0,0,1,2.83,4.2l2.93,8.4Z"/>
        <path class="cls-3" d="M143.19,332.88l-6.78-13.36h-.06v13.36h-5.8v-27.4h5.8v12.3h.06l6.71-12.3h6.44l-7.35,13.17,7.52,14.23Z"/>
        <path class="cls-3" d="M151.77,312.48h5.63v20.4h-5.63Zm2.83-2.38a3,3,0,0,1-3-3.1,3,3,0,1,1,6,0A3,3,0,0,1,154.6,310.1Z"/>
        <path class="cls-3" d="M172,322.25v10.63h-5.79V322.25l-7-16.77h6.19l3.68,10.3h.07l3.68-10.3h6.24Z"/>
        <path class="cls-3" d="M181.1,332.88v-27.4h13.29v5.38h-7.6v5.6h6.78v5.25h-6.78v5.8h7.6v5.37Z"/>
        <path class="cls-3" d="M205.76,312.48h5.62v20.4h-5.62Zm2.8-2.8a3.16,3.16,0,0,1-3.1-3.21,3.12,3.12,0,1,1,3.1,3.21Z"/>
        <path class="cls-3" d="M220.85,333.33a14.24,14.24,0,0,1-6.54-1.48l1.88-5.59a8.59,8.59,0,0,0,4.39,1.29c1.84,0,2.86-1.07,2.86-2.54s-1.22-2.35-2.76-3.14c-2.58-1.36-6.06-3.41-6.06-8.4s3-8.44,8.21-8.44a11.35,11.35,0,0,1,5.93,1.48L227,311.65a8.13,8.13,0,0,0-3.89-1.13,2.45,2.45,0,0,0-2.69,2.53c0,1.44,1.26,2.35,2.79,3.22,2.59,1.47,6.2,3.4,6.2,8.36C229.4,329.74,226.4,333.33,220.85,333.33Z"/>
        <path class="cls-3" d="M241.63,310.86v22h-5.79v-22h-4.7v-5.37h15.19v5.37Z"/>
        <path class="cls-3" d="M257.54,314.22a28.31,28.31,0,0,1-.61-3.44h-.07a30.72,30.72,0,0,1-.61,3.44l-2.19,8.44h5.66Zm4.7,18.66-1.43-5.56H253l-1.44,5.56h-6.06l8-27.4h6.88l8,27.4Z"/>
        <path class="cls-3" d="M277.94,310.86v22h-5.79v-22h-4.7v-5.37h15.19v5.37Z"/>
        <path class="cls-3" d="M285.57,312.48h5.62v20.4h-5.62Zm2.83-2.38a3,3,0,0,1-3-3.1,3,3,0,1,1,6,0A3,3,0,0,1,288.4,310.1Z"/>
        <path class="cls-3" d="M300.66,333.33a14.24,14.24,0,0,1-6.54-1.48l1.87-5.59a8.65,8.65,0,0,0,4.4,1.29c1.84,0,2.86-1.07,2.86-2.54s-1.23-2.35-2.76-3.14c-2.59-1.36-6.06-3.41-6.06-8.4s3-8.44,8.21-8.44a11.35,11.35,0,0,1,5.93,1.48l-1.77,5.14a8.13,8.13,0,0,0-3.89-1.13,2.45,2.45,0,0,0-2.69,2.53c0,1.44,1.26,2.35,2.79,3.22,2.6,1.47,6.2,3.4,6.2,8.36C309.21,329.74,306.22,333.33,300.66,333.33Z"/>
        <path class="cls-3" d="M321.44,310.86v22h-5.79v-22H311v-5.37h15.19v5.37Z"/>
        <path class="cls-3" d="M329.07,312.48h5.62v20.4h-5.62Zm2.83-2.38a3,3,0,0,1-3-3.1,3,3,0,1,1,6,0A3,3,0,0,1,331.9,310.1Z"/>
        <path class="cls-3" d="M351.25,332.88l-6.79-13.36h-.06v13.36h-5.79v-27.4h5.79v12.3h.06l6.72-12.3h6.44l-7.36,13.17,7.53,14.23Z"/>
        <path class="cls-3" d="M380.67,332.88l-6.77-13.36h-.07v13.36H368v-27.4h5.79v12.3h.07l6.71-12.3h6.44l-7.36,13.17,7.53,14.23Z"/>
        <path class="cls-3" d="M397.77,333.26c-4.93,0-8.65-3.07-8.65-8.63V305.48h5.79V324.7a2.87,2.87,0,1,0,5.73,0V305.48h5.79v19.15C406.43,330.19,402.71,333.26,397.77,333.26Z"/>
        <path class="cls-3" d="M418.42,309.83a7.37,7.37,0,0,0-2.22.31v7.57h2.22c2.55,0,3.81-1.25,3.81-3.79S421.11,309.83,418.42,309.83Zm4.83,23.05-2.69-8.14a3.1,3.1,0,0,0-2.93-2.49H416.2v10.63h-5.69V306.51a19.23,19.23,0,0,1,7.77-1.48c6.37,0,9.64,3.14,9.64,8.51a6.78,6.78,0,0,1-4.32,6.66v.08a7.82,7.82,0,0,1,2.82,4.2l2.93,8.4Z"/>
        <path class="cls-3" d="M440.59,333.26c-4.94,0-8.65-3.07-8.65-8.63V305.48h5.79V324.7a2.87,2.87,0,1,0,5.72,0V305.48h5.79v19.15C449.24,330.19,445.53,333.26,440.59,333.26Z"/>
        <path class="cls-3" d="M474.45,332.88l-1.4-15.82c-.17-1.78-.27-3.86-.27-3.86h-.07s-.34,2-.82,3.86l-4.15,15.82H464.2L460,317.06c-.47-1.82-.82-3.86-.82-3.86h-.06s-.08,2.08-.24,3.86l-1.44,15.82h-5.34l3-27.4h6.48l3.63,14.12c.42,1.63.72,3.59.72,3.59H466s.31-2,.72-3.59l3.64-14.12h6.48l3,27.4Z"/>
        <path class="cls-3" d="M491.35,333.26c-5,0-8.66-3.07-8.66-8.63V305.48h5.8V324.7a2.87,2.87,0,1,0,5.72,0V305.48H500v19.15C500,330.19,496.29,333.26,491.35,333.26Z"/>
        <path class="cls-3" d="M79.94,310.86v22H74.15v-22H69.44v-5.37h15.2v5.37Z"/>
      </g>
      <g>
        <path class="cls-4" d="M138.33,98.61H180V78.2H138.33Z"/>
        <path class="cls-4" d="M207.78,98.61h41.67V52.09H207.78Z"/>
        <path class="cls-3" d="M180,104.17v132h27.78V104.17h41.67V277.78H138.33V104.17Z"/>
        <path class="cls-4" d="M276.67,98.61h41.66V26.06H276.67Z"/>
        <path class="cls-3" d="M276.67,104.17h41.66V277.78H276.67Z"/>
        <path class="cls-3" d="M0,104.17H111.11V277.78H69.44V145.83H0Z"/>
        <path class="cls-3" d="M450.31,277.78l-62.46-87.52h-.63v87.52H345.56V0h41.66V180.27h.63l57.42-76h50.48l-62.43,81.15L500,277.78Z"/>
      </g>
    </g>
  </g>
</svg>
